<?xml version="1.0" encoding="UTF-8"?>
<svg width="84px" height="13px" viewBox="0 0 84 13" version="1.1" xmlns="http://www.w3.org/2000/svg" xmlns:xlink="http://www.w3.org/1999/xlink">
    <g stroke="none" stroke-width="1" fill="none" fill-rule="evenodd">
        <path d="M23.8808594,12 L23.8808594,10.1689453 L19.0908203,10.1689453 L19.0908203,7.50292969 L23.6098633,7.50292969 L23.6098633,5.80371094 L19.0908203,5.80371094 L19.0908203,3.25488281 L23.8808594,3.25488281 L23.8808594,1.43115234 L16.8789062,1.43115234 L16.8789062,12 L23.8808594,12 Z M28.3266602,12.0952148 C28.9125977,12.0952148 29.4277344,11.9621582 29.8720703,11.6960449 C30.3164062,11.4299316 30.6386719,11.0722656 30.8388672,10.6230469 L30.8388672,10.6230469 L30.8754883,10.6230469 L30.8754883,12 L32.9848633,12 L32.9848633,0.92578125 L30.8461914,0.92578125 L30.8461914,5.31298828 L30.8022461,5.31298828 C30.597168,4.85888672 30.2785645,4.5 29.8464355,4.23632812 C29.4143066,3.97265625 28.9101562,3.84082031 28.3339844,3.84082031 C27.328125,3.84082031 26.5249023,4.21191406 25.9243164,4.95410156 C25.3237305,5.69628906 25.0234375,6.69726562 25.0234375,7.95703125 C25.0234375,9.2265625 25.3225098,10.2336426 25.9206543,10.9782715 C26.5187988,11.7229004 27.3208008,12.0952148 28.3266602,12.0952148 Z M29.0371094,10.3666992 C28.4804688,10.3666992 28.0373535,10.1506348 27.7077637,9.71850586 C27.3781738,9.28637695 27.2133789,8.70166016 27.2133789,7.96435547 C27.2133789,7.23193359 27.3781738,6.6496582 27.7077637,6.2175293 C28.0373535,5.78540039 28.4804688,5.56933594 29.0371094,5.56933594 C29.5888672,5.56933594 30.0307617,5.7878418 30.362793,6.22485352 C30.6948242,6.66186523 30.8608398,7.24414062 30.8608398,7.97167969 C30.8608398,8.69921875 30.6948242,9.28027344 30.362793,9.71484375 C30.0307617,10.1494141 29.5888672,10.3666992 29.0371094,10.3666992 Z M35.5776367,3.05712891 C35.8999023,3.05712891 36.1733398,2.94970703 36.3979492,2.73486328 C36.6225586,2.52001953 36.7348633,2.25390625 36.7348633,1.93652344 C36.7348633,1.61914062 36.6225586,1.35424805 36.3979492,1.1418457 C36.1733398,0.929443359 35.8999023,0.823242188 35.5776367,0.823242188 C35.2602539,0.823242188 34.9892578,0.929443359 34.7646484,1.1418457 C34.5400391,1.35424805 34.4277344,1.61914062 34.4277344,1.93652344 C34.4277344,2.25390625 34.5400391,2.52001953 34.7646484,2.73486328 C34.9892578,2.94970703 35.2602539,3.05712891 35.5776367,3.05712891 Z M36.6469727,12 L36.6469727,3.93603516 L34.5083008,3.93603516 L34.5083008,12 L36.6469727,12 Z M41.3051758,12.0292969 C41.7006836,12.0292969 42.0449219,12 42.3378906,11.9414062 L42.3378906,11.9414062 L42.3378906,10.359375 C42.1914062,10.3837891 42.0131836,10.3959961 41.8032227,10.3959961 C41.1635742,10.3959961 40.84375,10.0883789 40.84375,9.47314453 L40.84375,9.47314453 L40.84375,5.5546875 L42.3378906,5.5546875 L42.3378906,3.93603516 L40.84375,3.93603516 L40.84375,2.14160156 L38.7050781,2.14160156 L38.7050781,3.93603516 L37.6137695,3.93603516 L37.6137695,5.5546875 L38.7050781,5.5546875 L38.7050781,9.82470703 C38.7050781,10.6108398 38.9052734,11.1748047 39.3056641,11.5166016 C39.7060547,11.8583984 40.3725586,12.0292969 41.3051758,12.0292969 Z M47.237793,12.1391602 C48.4682617,12.1391602 49.4387207,11.7692871 50.1491699,11.029541 C50.8596191,10.2897949 51.2148438,9.26806641 51.2148438,7.96435547 C51.2148438,6.67529297 50.8571777,5.65844727 50.1418457,4.91381836 C49.4265137,4.16918945 48.4584961,3.796875 47.237793,3.796875 C46.0219727,3.796875 45.0551758,4.17041016 44.3374023,4.91748047 C43.6196289,5.66455078 43.2607422,6.68017578 43.2607422,7.96435547 C43.2607422,9.26318359 43.6171875,10.2836914 44.3300781,11.0258789 C45.0429688,11.7680664 46.012207,12.1391602 47.237793,12.1391602 Z M47.237793,10.4912109 C46.6713867,10.4912109 46.2270508,10.2714844 45.9047852,9.83203125 C45.5874023,9.38769531 45.4287109,8.76513672 45.4287109,7.96435547 C45.4287109,7.17333984 45.588623,6.55444336 45.9084473,6.10766602 C46.2282715,5.66088867 46.6713867,5.4375 47.237793,5.4375 C47.7993164,5.4375 48.2399902,5.66088867 48.5598145,6.10766602 C48.8796387,6.55444336 49.0395508,7.17333984 49.0395508,7.96435547 C49.0395508,8.76513672 48.8808594,9.38647461 48.5634766,9.82836914 C48.2460938,10.2702637 47.8041992,10.4912109 47.237793,10.4912109 Z M54.4960938,12 L54.4960938,7.48828125 C54.4960938,6.921875 54.6474609,6.47998047 54.9501953,6.16259766 C55.2529297,5.84521484 55.675293,5.68652344 56.2172852,5.68652344 C56.5395508,5.68652344 56.7958984,5.73046875 56.9863281,5.81835938 L56.9863281,5.81835938 L56.9863281,3.92138672 C56.8251953,3.86767578 56.625,3.84082031 56.3857422,3.84082031 C55.9072266,3.84082031 55.5019531,3.97387695 55.1699219,4.23999023 C54.8378906,4.50610352 54.6035156,4.88574219 54.4667969,5.37890625 L54.4667969,5.37890625 L54.4228516,5.37890625 L54.4228516,3.93603516 L52.3574219,3.93603516 L52.3574219,12 L54.4960938,12 Z M59.0224609,3.05712891 C59.3447266,3.05712891 59.6181641,2.94970703 59.8427734,2.73486328 C60.0673828,2.52001953 60.1796875,2.25390625 60.1796875,1.93652344 C60.1796875,1.61914062 60.0673828,1.35424805 59.8427734,1.1418457 C59.6181641,0.929443359 59.3447266,0.823242188 59.0224609,0.823242188 C58.7050781,0.823242188 58.434082,0.929443359 58.2094727,1.1418457 C57.9848633,1.35424805 57.8725586,1.61914062 57.8725586,1.93652344 C57.8725586,2.25390625 57.9848633,2.52001953 58.2094727,2.73486328 C58.434082,2.94970703 58.7050781,3.05712891 59.0224609,3.05712891 Z M60.0917969,12 L60.0917969,3.93603516 L57.953125,3.93603516 L57.953125,12 L60.0917969,12 Z M64.4716797,12.1171875 C65.0820312,12.1171875 65.6057129,11.9816895 66.0427246,11.7106934 C66.4797363,11.4396973 66.8007812,11.050293 67.0058594,10.5424805 L67.0058594,10.5424805 L67.0498047,10.5424805 L67.0498047,12 L69.1152344,12 L69.1152344,3.93603516 L66.9765625,3.93603516 L66.9765625,8.52832031 C66.9765625,9.0703125 66.8203125,9.50732422 66.5078125,9.83935547 C66.1953125,10.1713867 65.7875977,10.3374023 65.284668,10.3374023 C64.7817383,10.3374023 64.3886719,10.1921387 64.1054688,9.90161133 C63.8222656,9.61108398 63.6806641,9.19726562 63.6806641,8.66015625 L63.6806641,8.66015625 L63.6806641,3.93603516 L61.5419922,3.93603516 L61.5419922,9.10693359 C61.5419922,10.034668 61.8093262,10.7683105 62.3439941,11.3078613 C62.8786621,11.8474121 63.5878906,12.1171875 64.4716797,12.1171875 Z M72.7041016,12 L72.7041016,7.15136719 C72.7041016,6.69238281 72.8371582,6.31762695 73.1032715,6.02709961 C73.3693848,5.73657227 73.7124023,5.59130859 74.1323242,5.59130859 C74.5473633,5.59130859 74.8720703,5.71459961 75.1064453,5.96118164 C75.3408203,6.20776367 75.4580078,6.54589844 75.4580078,6.97558594 L75.4580078,6.97558594 L75.4580078,12 L77.5234375,12 L77.5234375,7.12207031 C77.5234375,6.66308594 77.652832,6.29321289 77.9116211,6.01245117 C78.1704102,5.73168945 78.5097656,5.59130859 78.9296875,5.59130859 C79.3642578,5.59130859 79.6975098,5.71704102 79.9294434,5.96850586 C80.161377,6.2199707 80.2773438,6.58251953 80.2773438,7.05615234 L80.2773438,7.05615234 L80.2773438,12 L82.4160156,12 L82.4160156,6.52148438 C82.4160156,5.7109375 82.1730957,5.05786133 81.6872559,4.56225586 C81.201416,4.06665039 80.5629883,3.81884766 79.7719727,3.81884766 C79.1860352,3.81884766 78.668457,3.96655273 78.2192383,4.26196289 C77.7700195,4.55737305 77.4526367,4.95898438 77.2670898,5.46679688 L77.2670898,5.46679688 L77.2231445,5.46679688 C77.0864258,4.93945312 76.8227539,4.53295898 76.4321289,4.24731445 C76.0415039,3.96166992 75.5556641,3.81884766 74.9746094,3.81884766 C74.4375,3.81884766 73.9626465,3.96044922 73.5500488,4.24365234 C73.1374512,4.52685547 72.8457031,4.91259766 72.6748047,5.40087891 L72.6748047,5.40087891 L72.6308594,5.40087891 L72.6308594,3.93603516 L70.5654297,3.93603516 L70.5654297,12 L72.7041016,12 Z" fill="#313233" fill-rule="nonzero"></path>
        <g id="Group" transform="translate(0.000000, 1.000000)">
            <rect stroke="#313233" stroke-width="2" x="1" y="1" width="10" height="10" rx="2"></rect>
            <rect fill="#313233" x="4" y="3" width="1" height="8"></rect>
            <rect fill="#313233" x="0" y="3" width="11" height="1"></rect>
        </g>
    </g>
</svg>